<svg width="45" height="45" viewBox="0 0 45 45" fill="none" xmlns="http://www.w3.org/2000/svg">
<rect width="45" height="45" fill="white"/>
<mask id="path-2-inside-1_114_100" fill="white">
<path fill-rule="evenodd" clip-rule="evenodd" d="M12 5C10.8954 5 10 5.89543 10 7V38C10 39.1046 10.8954 40 12 40H18C19.1046 40 20 39.1046 20 38V7C20 5.89543 19.1046 5 18 5H12ZM27 5C25.8954 5 25 5.89543 25 7V38C25 39.1046 25.8954 40 27 40H33C34.1046 40 35 39.1046 35 38V7C35 5.89543 34.1046 5 33 5H27Z"/>
</mask>
<path fill-rule="evenodd" clip-rule="evenodd" d="M12 5C10.8954 5 10 5.89543 10 7V38C10 39.1046 10.8954 40 12 40H18C19.1046 40 20 39.1046 20 38V7C20 5.89543 19.1046 5 18 5H12ZM27 5C25.8954 5 25 5.89543 25 7V38C25 39.1046 25.8954 40 27 40H33C34.1046 40 35 39.1046 35 38V7C35 5.89543 34.1046 5 33 5H27Z" fill="white"/>
<path d="M11.5 7C11.5 6.72386 11.7239 6.5 12 6.5V3.5C10.067 3.5 8.5 5.067 8.5 7H11.5ZM11.5 38V7H8.5V38H11.5ZM12 38.5C11.7239 38.5 11.5 38.2761 11.5 38H8.5C8.5 39.933 10.067 41.5 12 41.5V38.5ZM18 38.5H12V41.5H18V38.5ZM18.5 38C18.5 38.2761 18.2761 38.5 18 38.5V41.5C19.933 41.5 21.5 39.933 21.5 38H18.5ZM18.5 7V38H21.5V7H18.5ZM18 6.5C18.2761 6.5 18.5 6.72386 18.5 7H21.5C21.5 5.067 19.933 3.5 18 3.5V6.5ZM12 6.5H18V3.5H12V6.5ZM26.5 7C26.5 6.72386 26.7239 6.5 27 6.5V3.5C25.067 3.5 23.5 5.067 23.5 7H26.5ZM26.5 38V7H23.5V38H26.5ZM27 38.5C26.7239 38.5 26.5 38.2761 26.5 38H23.5C23.5 39.933 25.067 41.5 27 41.5V38.5ZM33 38.5H27V41.5H33V38.5ZM33.5 38C33.5 38.2761 33.2761 38.5 33 38.5V41.5C34.933 41.5 36.5 39.933 36.5 38H33.5ZM33.5 7V38H36.5V7H33.5ZM33 6.5C33.2761 6.5 33.5 6.72386 33.5 7H36.5C36.5 5.067 34.933 3.5 33 3.5V6.5ZM27 6.5H33V3.5H27V6.5Z" fill="#333333" mask="url(#path-2-inside-1_114_100)"/>
</svg>
