<svg width="24" height="25" viewBox="0 0 24 25" fill="none" xmlns="http://www.w3.org/2000/svg">
<path fill-rule="evenodd" clip-rule="evenodd" d="M2.99443 0.511361C2.30941 -0.170454 1.19878 -0.170454 0.513763 0.511361C-0.171254 1.19317 -0.171254 2.29861 0.513763 2.98043L9.57759 12.0019L0.513763 21.0233C-0.171254 21.7051 -0.171254 22.8106 0.513763 23.4924C1.19878 24.1742 2.30941 24.1742 2.99443 23.4924L12.0583 14.4709L21.0062 23.3771C21.6912 24.0589 22.8019 24.0589 23.4869 23.3771C24.1719 22.6952 24.1719 21.5898 23.4869 20.908L14.5389 12.0019L23.4869 3.09577C24.1719 2.41395 24.1719 1.30851 23.4869 0.626699C22.8019 -0.0551151 21.6912 -0.0551158 21.0062 0.626699L12.0583 9.53281L2.99443 0.511361Z" fill="white"/>
</svg>
