<svg width="23" height="27" viewBox="0 0 23 27" fill="none" xmlns="http://www.w3.org/2000/svg">
<path d="M2.90936 4.84613L4.10254 24.0769C4.15922 25.1881 4.96164 26 6.01164 26H16.9889C18.0431 26 18.8306 25.1881 18.898 24.0769L20.0912 4.84613" stroke="#F2F2F2" stroke-linecap="round" stroke-linejoin="round"/>
<path d="M1 4.84613H22Z" fill="#333333"/>
<path d="M1 4.84613H22" stroke="#F2F2F2" stroke-miterlimit="10" stroke-linecap="round"/>
<path d="M15.7955 8.69231L15.3182 22.1538M7.68183 4.84616V2.44231C7.68128 2.25275 7.71794 2.06495 7.7897 1.88971C7.86146 1.71447 7.96691 1.55525 8.09997 1.42121C8.23304 1.28717 8.3911 1.18095 8.56507 1.10866C8.73903 1.03638 8.92547 0.999451 9.11365 1.00001H13.8864C14.0746 0.999451 14.261 1.03638 14.435 1.10866C14.6089 1.18095 14.767 1.28717 14.9001 1.42121C15.0331 1.55525 15.1386 1.71447 15.2103 1.88971C15.2821 2.06495 15.3187 2.25275 15.3182 2.44231V4.84616H7.68183ZM11.5 8.69231V22.1538V8.69231ZM7.20456 8.69231L7.68183 22.1538L7.20456 8.69231Z" stroke="#F2F2F2" stroke-linecap="round" stroke-linejoin="round"/>
</svg>
